<svg width="113" height="32" viewBox="0 0 113 32" fill="none" xmlns="http://www.w3.org/2000/svg">
<path d="M14.5754 3H0.0187337V9.67383H14.5276V16.7468H21V9.67383L14.5754 3Z" fill="#99F400"/>
<path d="M6.53608 12.9604H0V29H6.53608V23.4839H14.462V16.7551H6.53608V12.9604Z" fill="#99F400"/>
<path d="M102.671 21.2013C101.928 21.2013 101.26 21.0836 100.667 20.8481C100.075 20.6125 99.5772 20.2779 99.1739 19.844C98.7706 19.4102 98.4619 18.8895 98.2476 18.2822C98.0334 17.6624 97.9263 16.9682 97.9263 16.1997C97.9263 15.4312 98.0334 14.737 98.2476 14.1172C98.4745 13.4975 98.7832 12.9706 99.1739 12.5368C99.5772 12.0906 100.062 11.7497 100.629 11.5142C101.197 11.2786 101.827 11.1609 102.52 11.1609C103.2 11.1609 103.818 11.2786 104.372 11.5142C104.927 11.7373 105.4 12.0596 105.79 12.481C106.181 12.9025 106.477 13.4045 106.679 13.9871C106.893 14.5697 107 15.2143 107 15.9208V16.6831H100.006V16.9992C100.006 17.7554 100.245 18.3751 100.724 18.8586C101.203 19.3296 101.865 19.5651 102.709 19.5651C103.339 19.5651 103.875 19.435 104.316 19.1746C104.769 18.9019 105.135 18.5425 105.412 18.0962L106.698 19.2118C106.37 19.7696 105.866 20.2407 105.185 20.6249C104.517 21.0092 103.679 21.2013 102.671 21.2013ZM102.52 12.7041C102.154 12.7041 101.814 12.7661 101.499 12.8901C101.197 13.014 100.932 13.1938 100.705 13.4293C100.491 13.6524 100.321 13.9189 100.195 14.2288C100.069 14.5387 100.006 14.8796 100.006 15.2514V15.3816H104.902V15.1957C104.902 14.4395 104.681 13.8383 104.24 13.3921C103.812 12.9335 103.238 12.7041 102.52 12.7041Z" fill="white"/>
<path d="M96.2324 22.0194C96.2324 23.0111 95.8102 23.7424 94.9658 24.2135C94.1215 24.6845 92.836 24.92 91.1095 24.92C90.2651 24.92 89.5531 24.8642 88.9734 24.7527C88.4063 24.6535 87.94 24.5048 87.5745 24.3064C87.2217 24.1081 86.9633 23.8664 86.7995 23.5813C86.6482 23.2962 86.5726 22.9739 86.5726 22.6144C86.5726 22.0938 86.7176 21.6848 87.0074 21.3873C87.3099 21.1022 87.7321 20.8914 88.274 20.7551V20.5691C87.9463 20.4452 87.6816 20.2717 87.48 20.0485C87.291 19.8254 87.1965 19.5341 87.1965 19.1746C87.1965 18.7036 87.3603 18.3503 87.6879 18.1148C88.0156 17.8669 88.4378 17.681 88.9545 17.557V17.464C88.3622 17.1913 87.9022 16.8071 87.5745 16.3113C87.2469 15.8154 87.083 15.2204 87.083 14.5263C87.083 14.0181 87.1776 13.5594 87.3666 13.1504C87.5556 12.7289 87.8203 12.3757 88.1605 12.0906C88.5134 11.7931 88.9293 11.5637 89.4082 11.4026C89.8997 11.2415 90.4479 11.1609 91.0528 11.1609C91.7333 11.1609 92.3445 11.2662 92.8864 11.477V11.1609C92.8864 10.789 92.9936 10.4791 93.2078 10.2312C93.422 9.9833 93.7497 9.85934 94.1908 9.85934H95.9677V11.4584H93.6993V11.9046C94.1278 12.1897 94.4554 12.5554 94.6823 13.0016C94.9091 13.4355 95.0225 13.9437 95.0225 14.5263C95.0225 15.0345 94.928 15.4993 94.739 15.9208C94.55 16.3299 94.279 16.6831 93.9261 16.9806C93.5859 17.2657 93.17 17.4888 92.6785 17.65C92.1996 17.7987 91.6577 17.8731 91.0528 17.8731C90.6243 17.8731 90.221 17.8359 89.843 17.7615C89.6161 17.8235 89.3893 17.9289 89.1624 18.0776C88.9356 18.2264 88.8222 18.4309 88.8222 18.6912C88.8222 18.9887 88.9671 19.1746 89.2569 19.249C89.5468 19.3234 89.906 19.3606 90.3345 19.3606H92.5273C93.8379 19.3606 94.7831 19.6085 95.3628 20.1043C95.9425 20.5877 96.2324 21.2261 96.2324 22.0194ZM94.3042 22.1496C94.3042 21.8273 94.1719 21.567 93.9072 21.3687C93.6426 21.1827 93.1637 21.0898 92.4706 21.0898H89.0868C88.6079 21.3129 88.3685 21.6724 88.3685 22.1682C88.3685 22.5277 88.5197 22.8375 88.8222 23.0979C89.1372 23.3582 89.6539 23.4883 90.3723 23.4883H91.9035C92.6848 23.4883 93.2771 23.3706 93.6804 23.135C94.0963 22.9119 94.3042 22.5834 94.3042 22.1496ZM91.0528 16.4786C91.7207 16.4786 92.2122 16.3237 92.5273 16.0138C92.8423 15.7039 92.9999 15.2886 92.9999 14.768V14.266C92.9999 13.7454 92.8423 13.3301 92.5273 13.0202C92.2122 12.7103 91.7207 12.5554 91.0528 12.5554C90.3849 12.5554 89.8934 12.7103 89.5783 13.0202C89.2632 13.3301 89.1057 13.7454 89.1057 14.266V14.768C89.1057 15.2886 89.2632 15.7039 89.5783 16.0138C89.8934 16.3237 90.3849 16.4786 91.0528 16.4786Z" fill="white"/>
<path d="M80.0015 21.2013C79.2579 21.2013 78.59 21.0836 77.9977 20.8481C77.4054 20.6125 76.9076 20.2779 76.5043 19.844C76.101 19.4102 75.7923 18.8895 75.578 18.2822C75.3638 17.6624 75.2567 16.9682 75.2567 16.1997C75.2567 15.4312 75.3638 14.737 75.578 14.1172C75.8049 13.4975 76.1136 12.9706 76.5043 12.5368C76.9076 12.0906 77.3928 11.7497 77.9599 11.5142C78.527 11.2786 79.1571 11.1609 79.8502 11.1609C80.5308 11.1609 81.1483 11.2786 81.7028 11.5142C82.2573 11.7373 82.7299 12.0596 83.1206 12.481C83.5112 12.9025 83.8074 13.4045 84.009 13.9871C84.2233 14.5697 84.3304 15.2143 84.3304 15.9208V16.6831H77.3361V16.9992C77.3361 17.7554 77.5755 18.3751 78.0544 18.8586C78.5333 19.3296 79.1949 19.5651 80.0393 19.5651C80.6694 19.5651 81.205 19.435 81.6461 19.1746C82.0998 18.9019 82.4652 18.5425 82.7425 18.0962L84.0279 19.2118C83.7003 19.7696 83.1962 20.2407 82.5156 20.6249C81.8477 21.0092 81.0097 21.2013 80.0015 21.2013ZM79.8502 12.7041C79.4848 12.7041 79.1445 12.7661 78.8294 12.8901C78.527 13.014 78.2623 13.1938 78.0355 13.4293C77.8212 13.6524 77.6511 13.9189 77.5251 14.2288C77.3991 14.5387 77.3361 14.8796 77.3361 15.2514V15.3816H82.2321V15.1957C82.2321 14.4395 82.0116 13.8383 81.5705 13.3921C81.142 12.9335 80.5686 12.7041 79.8502 12.7041Z" fill="white"/>
<path d="M69.0448 20.9782C68.1878 20.9782 67.5577 20.7551 67.1544 20.3088C66.7511 19.8502 66.5495 19.2614 66.5495 18.5425V13.0202H63.5438V11.384H65.6799C66.0454 11.384 66.3038 11.3158 66.455 11.1795C66.6062 11.0307 66.6818 10.7704 66.6818 10.3986V8H68.61V11.384H72.7688V13.0202H68.61V19.342H72.7688V20.9782H69.0448Z" fill="white"/>
<path d="M57.1239 21.2013C56.4056 21.2013 55.7566 21.0836 55.1769 20.8481C54.6098 20.6125 54.1246 20.2779 53.7213 19.844C53.3306 19.4102 53.0282 18.8834 52.8139 18.2636C52.5997 17.6438 52.4926 16.9496 52.4926 16.1811C52.4926 15.4126 52.5997 14.7184 52.8139 14.0986C53.0282 13.4789 53.3306 12.9521 53.7213 12.5182C54.1246 12.0844 54.6098 11.7497 55.1769 11.5142C55.7566 11.2786 56.4056 11.1609 57.1239 11.1609C57.8423 11.1609 58.485 11.2786 59.0521 11.5142C59.6318 11.7497 60.117 12.0844 60.5077 12.5182C60.911 12.9521 61.2197 13.4789 61.434 14.0986C61.6482 14.7184 61.7553 15.4126 61.7553 16.1811C61.7553 16.9496 61.6482 17.6438 61.434 18.2636C61.2197 18.8834 60.911 19.4102 60.5077 19.844C60.117 20.2779 59.6318 20.6125 59.0521 20.8481C58.485 21.0836 57.8423 21.2013 57.1239 21.2013ZM57.1239 19.6023C57.8801 19.6023 58.4787 19.3792 58.9198 18.9329C59.3735 18.4743 59.6003 17.7987 59.6003 16.9063V15.456C59.6003 14.5635 59.3735 13.8941 58.9198 13.4479C58.4787 12.9892 57.8801 12.7599 57.1239 12.7599C56.3678 12.7599 55.7629 12.9892 55.3092 13.4479C54.8681 13.8941 54.6476 14.5635 54.6476 15.456V16.9063C54.6476 17.7987 54.8681 18.4743 55.3092 18.9329C55.7629 19.3792 56.3678 19.6023 57.1239 19.6023Z" fill="white"/>
<path d="M41.5547 19.342H44.1445V13.0202H41.5547V11.384H46.205V13.9313H46.3185C46.4067 13.5966 46.5327 13.2743 46.6965 12.9644C46.8604 12.6545 47.0683 12.388 47.3204 12.1649C47.5724 11.9294 47.8812 11.7434 48.2466 11.6071C48.6121 11.4583 49.0406 11.384 49.5321 11.384H50.7041V13.3177H48.7759C48.0198 13.3177 47.4023 13.5408 46.9234 13.987C46.4445 14.4209 46.205 15.0097 46.205 15.7534V19.342H49.74V20.9782H41.5547V19.342Z" fill="white"/>
<path d="M30.3712 20.9782V8H35.3051C36.5653 8 37.5231 8.34708 38.1784 9.04123C38.8463 9.73538 39.1803 10.6898 39.1803 11.9046C39.1803 13.1194 38.8463 14.0738 38.1784 14.768C37.5231 15.4622 36.5653 15.8092 35.3051 15.8092H32.4884V20.9782H30.3712ZM32.4884 14.08H34.9837C36.2944 14.08 36.9497 13.4851 36.9497 12.2951V11.4956C36.9497 10.318 36.2944 9.72919 34.9837 9.72919H32.4884V14.08Z" fill="white"/>
</svg>
