<svg width="288" height="80" viewBox="0 0 288 80" fill="none" xmlns="http://www.w3.org/2000/svg">
<path d="M278.255 14.5168C279.084 14.0364 280.021 14.9441 279.622 15.8402L278.286 18.8364C278.108 19.2371 278.198 19.7128 278.509 20.0143L280.837 22.2677C281.532 22.941 280.998 24.1454 280.056 24.0265L276.895 23.6277C276.475 23.5747 276.07 23.809 275.892 24.2086L274.553 27.2129C274.154 28.1085 272.886 27.945 272.703 26.9745L272.093 23.7343C272.011 23.2993 271.669 22.9683 271.247 22.915L268.1 22.5179C267.157 22.399 266.908 21.0937 267.737 20.6136L270.515 19.003C270.885 18.7888 271.08 18.351 270.998 17.9179L270.386 14.6636C270.203 13.694 271.317 13.0507 272.013 13.7241L274.34 15.9774C274.651 16.279 275.113 16.3378 275.484 16.123L278.255 14.5168Z" fill="#99F400"/>
<path d="M31.444 66.1307C32.2905 65.6401 33.2452 66.5644 32.8372 67.4797L32.3576 68.5556C32.1752 68.9649 32.2665 69.45 32.5838 69.7572L33.4179 70.5648C34.1275 71.2518 33.5785 72.4833 32.6168 72.3619L31.4864 72.2193C31.0563 72.165 30.6416 72.4054 30.4591 72.8147L29.9795 73.8906C29.5716 74.8059 28.2776 74.6426 28.0912 73.6524L27.8721 72.4883C27.7888 72.0454 27.4411 71.7089 27.011 71.6546L25.8806 71.512C24.9189 71.3906 24.6681 70.0582 25.5146 69.5676L26.5097 68.9908C26.8882 68.7714 27.0881 68.323 27.0047 67.8801L26.7856 66.7161C26.5992 65.7258 27.7382 65.0656 28.4478 65.7526L29.2818 66.5602C29.5992 66.8675 30.0703 66.9269 30.4489 66.7075L31.444 66.1307Z" fill="#99F400"/>
<path d="M38.155 68.9429C38.4009 68.8004 38.6782 69.0689 38.5597 69.3347L38.4204 69.6472C38.3674 69.7661 38.3939 69.907 38.4861 69.9963L38.7284 70.2309C38.9345 70.4304 38.775 70.7881 38.4957 70.7528L38.1673 70.7114C38.0424 70.6956 37.9219 70.7655 37.8689 70.8844L37.7296 71.1969C37.6111 71.4627 37.2353 71.4153 37.1812 71.1277L37.1175 70.7895C37.0933 70.6609 36.9923 70.5631 36.8674 70.5474L36.5391 70.506C36.2597 70.4707 36.1869 70.0837 36.4328 69.9412L36.7218 69.7737C36.8317 69.7099 36.8898 69.5797 36.8656 69.4511L36.8019 69.1129C36.7478 68.8253 37.0786 68.6336 37.2847 68.8331L37.527 69.0677C37.6192 69.1569 37.756 69.1742 37.866 69.1104L38.155 68.9429Z" fill="#99F400"/>
<path d="M31.155 61.6511C31.4009 61.5086 31.6782 61.7771 31.5597 62.043L31.4204 62.3555C31.3674 62.4744 31.3939 62.6153 31.4861 62.7045L31.7284 62.9391C31.9345 63.1386 31.775 63.4963 31.4957 63.4611L31.1673 63.4196C31.0424 63.4039 30.9219 63.4737 30.8689 63.5926L30.7296 63.9051C30.6111 64.1709 30.2353 64.1235 30.1812 63.8359L30.1175 63.4978C30.0933 63.3691 29.9923 63.2714 29.8674 63.2556L29.5391 63.2142C29.2597 63.1789 29.1869 62.7919 29.4328 62.6494L29.7218 62.4819C29.8317 62.4182 29.8898 62.2879 29.8656 62.1593L29.8019 61.8212C29.7478 61.5335 30.0786 61.3418 30.2847 61.5413L30.527 61.7759C30.6192 61.8651 30.756 61.8824 30.866 61.8187L31.155 61.6511Z" fill="#99F400"/>
<path d="M5.0143 19.9719C5.01967 19.2332 5.92938 18.9332 6.34187 19.5341L7.661 21.4559C7.84547 21.7246 8.17509 21.8391 8.47745 21.7394L10.6396 21.0264C11.3158 20.8034 11.8708 21.612 11.4496 22.2063L10.1027 24.107C9.91429 24.3728 9.91166 24.7347 10.0961 25.0035L11.4153 26.9252C11.8277 27.5262 11.261 28.3259 10.5882 28.0923L8.43668 27.3452C8.13579 27.2407 7.80455 27.35 7.61619 27.6158L6.26926 29.5165C5.84808 30.1108 4.94284 29.7965 4.94821 29.0578L4.96539 26.6954C4.9678 26.365 4.76571 26.0706 4.46483 25.9661L2.31325 25.2191C1.64046 24.9855 1.64769 23.9915 2.32381 23.7686L4.486 23.0556C4.78837 22.9559 4.99471 22.6647 4.99712 22.3343L5.0143 19.9719Z" fill="#99F400"/>
<path d="M1.19524 19.5668C1.0945 19.4631 1.17998 19.2857 1.31999 19.3079L1.76772 19.3789C1.83033 19.3888 1.89196 19.3556 1.92037 19.2966L2.12353 18.875C2.18706 18.7432 2.37544 18.773 2.39844 18.9186L2.47198 19.3841C2.48227 19.4492 2.53162 19.5 2.59423 19.5099L3.04196 19.5809C3.18197 19.6031 3.21291 19.7989 3.08712 19.8667L2.68485 20.0834C2.62859 20.1137 2.59747 20.1783 2.60775 20.2434L2.6813 20.7089C2.7043 20.8545 2.53504 20.9457 2.4343 20.842L2.11214 20.5104C2.06708 20.464 1.99849 20.4532 1.94224 20.4835L1.53996 20.7002C1.41417 20.7679 1.27862 20.6284 1.34215 20.4966L1.54532 20.075C1.57373 20.016 1.56246 19.9447 1.51741 19.8983L1.19524 19.5668Z" fill="#99F400"/>
<path d="M8.01409 16.749C7.91335 16.6453 7.99883 16.4679 8.13883 16.4901L8.58656 16.5611C8.64918 16.571 8.7108 16.5378 8.73921 16.4789L8.94238 16.0573C9.00591 15.9254 9.19429 15.9553 9.21728 16.1008L9.29083 16.5663C9.30112 16.6314 9.35047 16.6822 9.41308 16.6922L9.86081 16.7631C10.0008 16.7853 10.0318 16.9812 9.90597 17.049L9.50369 17.2657C9.44744 17.296 9.41631 17.3606 9.4266 17.4257L9.50015 17.8912C9.52314 18.0367 9.35389 18.1279 9.25315 18.0242L8.93098 17.6927C8.88593 17.6463 8.81734 17.6354 8.76108 17.6657L8.35881 17.8824C8.23302 17.9502 8.09747 17.8107 8.161 17.6789L8.36417 17.2572C8.39258 17.1983 8.38131 17.1269 8.33626 17.0806L8.01409 16.749Z" fill="#99F400"/>
<path d="M262.976 70.645C263.495 70.3442 264.081 70.9109 263.831 71.4721L263.031 73.2666C262.919 73.5176 262.975 73.815 263.169 74.0034L264.561 75.3504C264.996 75.7716 264.659 76.5267 264.07 76.4523L262.184 76.2143C261.92 76.1811 261.666 76.3284 261.554 76.5794L260.754 78.3739C260.504 78.9351 259.711 78.835 259.596 78.2279L259.231 76.2863C259.18 76.0147 258.967 75.8084 258.703 75.7751L256.817 75.5372C256.228 75.4628 256.074 74.6459 256.593 74.345L258.253 73.383C258.485 73.2485 258.607 72.9735 258.556 72.702L258.191 70.7604C258.077 70.1533 258.775 69.7485 259.21 70.1697L260.601 71.5168C260.796 71.7051 261.085 71.7416 261.317 71.607L262.976 70.645Z" fill="white"/>
<path d="M80.9764 2.9357C81.4954 2.63487 82.0808 3.20161 81.8306 3.76277L81.0307 5.55732C80.9189 5.80828 80.9749 6.10573 81.1694 6.2941L82.5607 7.64112C82.9957 8.06234 82.6591 8.81737 82.0695 8.74297L80.1839 8.50504C79.9202 8.47177 79.6659 8.61915 79.5541 8.87011L78.7541 10.6647C78.504 11.2258 77.7107 11.1257 77.5964 10.5186L77.2309 8.57697C77.1798 8.30545 76.9667 8.09909 76.703 8.06582L74.8174 7.82789C74.2277 7.75349 74.074 6.93659 74.593 6.63575L76.2527 5.67371C76.4849 5.53917 76.6074 5.26425 76.5563 4.99273L76.1908 3.05113C76.0766 2.44399 76.7749 2.03922 77.2099 2.46044L78.6012 3.80746C78.7957 3.99584 79.0846 4.03229 79.3167 3.89775L80.9764 2.9357Z" fill="white"/>
<path d="M74.9764 15.4359C75.4954 15.1351 76.0808 15.7018 75.8306 16.263L75.0307 18.0575C74.9189 18.3085 74.9749 18.6059 75.1694 18.7943L76.5607 20.1413C76.9957 20.5625 76.6591 21.3176 76.0695 21.2432L74.1839 21.0052C73.9202 20.9719 73.6659 21.1193 73.5541 21.3703L72.7541 23.1648C72.504 23.726 71.7107 23.6259 71.5964 23.0188L71.2309 21.0772C71.1798 20.8056 70.9667 20.5993 70.703 20.566L68.8174 20.3281C68.2277 20.2537 68.074 19.4368 68.593 19.1359L70.2527 18.1739C70.4849 18.0394 70.6074 17.7644 70.5563 17.4929L70.1908 15.5513C70.0766 14.9442 70.7749 14.5394 71.2099 14.9606L72.6012 16.3076C72.7957 16.496 73.0846 16.5325 73.3167 16.3979L74.9764 15.4359Z" fill="white"/>
<path d="M84.3609 14.1052C84.6447 13.9407 84.9647 14.2506 84.828 14.5574L84.3906 15.5385C84.3295 15.6757 84.3601 15.8383 84.4664 15.9413L85.2271 16.6777C85.4649 16.908 85.2809 17.3208 84.9585 17.2801L83.9276 17.1501C83.7835 17.1319 83.6445 17.2124 83.5833 17.3497L83.146 18.3308C83.0092 18.6376 82.5755 18.5828 82.513 18.2509L82.3132 17.1894C82.2853 17.0409 82.1687 16.9281 82.0246 16.9099L80.9937 16.7798C80.6713 16.7392 80.5872 16.2926 80.871 16.1281L81.7784 15.6021C81.9053 15.5286 81.9723 15.3783 81.9444 15.2298L81.7445 14.1683C81.6821 13.8364 82.0639 13.6151 82.3017 13.8454L83.0623 14.5818C83.1687 14.6848 83.3266 14.7047 83.4535 14.6312L84.3609 14.1052Z" fill="white"/>
</svg>
